<svg width="19" height="20" viewBox="0 0 19 20" fill="none" xmlns="http://www.w3.org/2000/svg">
<path d="M10.7365 2.7126C11.8605 1.38869 12.9768 0.830057 13.8624 0.616958C14.3014 0.511317 14.6737 0.492996 14.949 0.502018C15.0867 0.506527 15.1988 0.51783 15.2807 0.527913C15.313 0.531894 15.3416 0.535841 15.3617 0.5386L15.3741 0.540294L15.3783 0.54087C16.0379 0.548462 16.797 0.850622 17.3916 1.34089C18.0014 1.84366 18.5 2.59752 18.5 3.53507C18.5 4.33707 18.359 5.07079 17.9534 5.68219C17.5431 6.30083 16.9041 6.73142 16.0322 7.0053C15.7687 7.08805 15.4881 6.94157 15.4053 6.67811C15.3226 6.41466 15.4691 6.13401 15.7325 6.05126C16.4488 5.82627 16.8686 5.50856 17.1201 5.12946C17.3763 4.74312 17.5 4.22967 17.5 3.53507C17.5 2.97601 17.2045 2.4827 16.7554 2.11245C16.2989 1.736 15.7463 1.54072 15.3529 1.54072C15.3059 1.54072 15.2535 1.5332 15.2413 1.53146L15.2392 1.53117L15.2228 1.52892C15.2031 1.52621 15.183 1.52344 15.1583 1.52041C15.0978 1.51295 15.0166 1.50477 14.9163 1.50148C14.7159 1.49491 14.4348 1.50777 14.0963 1.58921C13.4271 1.75026 12.4925 2.18936 11.4988 3.35979C10.8101 4.17101 10.3065 5.26534 9.97536 6.33899C9.64423 7.41265 9.5 8.41812 9.5 9.02262V19C9.5 19.2761 9.27614 19.5 9 19.5C8.72386 19.5 8.5 19.2761 8.5 19V9C8.5 8.39044 8.36315 7.37985 8.04994 6.30212C7.73649 5.2236 7.26002 4.12541 6.60957 3.31234C5.67156 2.13984 4.79382 1.70535 4.17355 1.54695C3.85939 1.46673 3.59912 1.45421 3.4143 1.46063C3.32178 1.46385 3.24679 1.47186 3.19086 1.47918C3.16804 1.48216 3.14948 1.48487 3.13092 1.48757L3.11517 1.48986L3.11381 1.49007C3.10404 1.49158 3.04952 1.5 3 1.5C2.64511 1.5 2.13296 1.68867 1.70425 2.06379C1.28501 2.43063 1 2.92736 1 3.5C1 4.20055 1.11781 4.7201 1.3615 5.11C1.59883 5.48972 1.99137 5.80341 2.65811 6.02566C2.92009 6.11298 3.06167 6.39614 2.97434 6.65811C2.88702 6.92009 2.60386 7.06167 2.34189 6.97434C1.50863 6.69659 0.901174 6.26028 0.513501 5.64C0.132187 5.0299 0 4.29945 0 3.5C0 2.57264 0.464994 1.81937 1.04575 1.31121C1.60873 0.818601 2.33345 0.5091 2.97178 0.500196L4.42097 0.578045C5.26919 0.79465 6.32844 1.36015 7.39043 2.68765C8.15351 3.64148 8.67703 4.87663 9.01021 6.02305C9.01282 6.03204 9.01542 6.04102 9.01801 6.05001C9.0186 6.04809 9.01919 6.04618 9.01978 6.04427C9.3733 4.89801 9.92852 3.66428 10.7365 2.7126Z" fill="white"/>
</svg>
